<svg xmlns="http://www.w3.org/2000/svg" id="export" class="canvas" preserveAspectRatio="xMidYMid meet" style="position: absolute; margin: 0px;" width="1144" height="79"><rect id="background" fill="#fff" pointer-events="all" width="1144" height="79"/><g id="origin" transform="translate(3.5500000000000003, 3.5500000000000003) scale(1)"><g id="clusters" class="clusters"/><g id="edge-paths" class="edge-paths"><defs><marker id="arrowhead-vee" viewBox="0 0 10 10" refX="9" refY="5" markerUnits="strokeWidth" markerWidth="8" markerHeight="6" orient="auto" style="fill: rgb(0, 0, 0);"><path d="M 0 0 L 10 5 L 0 10 L 4 5 z" style="stroke-width: 1;"/></marker><marker id="arrowhead-vee-select" viewBox="0 0 10 10" refX="9" refY="5" markerUnits="strokeWidth" markerWidth="8" markerHeight="6" orient="auto" style="fill: rgb(238, 0, 0);"><path d="M 0 0 L 10 5 L 0 10 L 4 5 z" style="stroke-width: 1;"/></marker></defs><path class="edge-path" d="M39.59375,35.5L43.59765625,35.5C47.6015625,35.5,55.609375,35.5,63.6171875,35.5C71.625,35.5,79.6328125,35.5,83.63671875,35.5L87.640625,35.5" id="edge-input" style="stroke: rgb(0, 0, 0); stroke-width: 1px; fill: none; marker-end: url(&quot;#arrowhead-vee&quot;);"/><path class="edge-path" d="M154.0625,35.5L155.72916666666666,35.5C157.39583333333334,35.5,160.72916666666666,35.5,164.0625,35.5C167.39583333333334,35.5,170.72916666666666,35.5,172.39583333333334,35.5L174.0625,35.5" id="edge-input_1" style="stroke: rgb(0, 0, 0); stroke-width: 1px; fill: none; marker-end: url(&quot;#arrowhead-vee&quot;);"/><path class="edge-path" d="M274.0625,35.5L275.7291666666667,35.5C277.3958333333333,35.5,280.7291666666667,35.5,284.0625,35.5C287.3958333333333,35.5,290.7291666666667,35.5,292.3958333333333,35.5L294.0625,35.5" id="edge-conv1d" style="stroke: rgb(0, 0, 0); stroke-width: 1px; fill: none; marker-end: url(&quot;#arrowhead-vee&quot;);"/><path class="edge-path" d="M394.0625,35.5L395.7291666666667,35.5C397.3958333333333,35.5,400.7291666666667,35.5,404.0625,35.5C407.3958333333333,35.5,410.7291666666667,35.5,412.3958333333333,35.5L414.0625,35.5" id="edge-conv1d_1" style="stroke: rgb(0, 0, 0); stroke-width: 1px; fill: none; marker-end: url(&quot;#arrowhead-vee&quot;);"/><path class="edge-path" d="M514.0625,35.5L515.7291666666666,35.5C517.3958333333334,35.5,520.7291666666666,35.5,524.0625,35.5C527.3958333333334,35.5,530.7291666666666,35.5,532.3958333333334,35.5L534.0625,35.5" id="edge-conv1d_2" style="stroke: rgb(0, 0, 0); stroke-width: 1px; fill: none; marker-end: url(&quot;#arrowhead-vee&quot;);"/><path class="edge-path" d="M634.0625,35.5L635.7291666666666,35.5C637.3958333333334,35.5,640.7291666666666,35.5,644.0625,35.5C647.3958333333334,35.5,650.7291666666666,35.5,652.3958333333334,35.5L654.0625,35.5" id="edge-dense" style="stroke: rgb(0, 0, 0); stroke-width: 1px; fill: none; marker-end: url(&quot;#arrowhead-vee&quot;);"/><path class="edge-path" d="M788.453125,35.5L790.1197916666666,35.5C791.7864583333334,35.5,795.1197916666666,35.5,798.453125,35.5C801.7864583333334,35.5,805.1197916666666,35.5,806.7864583333334,35.5L808.453125,35.5" id="edge-lstm" style="stroke: rgb(0, 0, 0); stroke-width: 1px; fill: none; marker-end: url(&quot;#arrowhead-vee&quot;);"/><path class="edge-path" d="M942.84375,35.5L944.5104166666666,35.5C946.1770833333334,35.5,949.5104166666666,35.5,952.84375,35.5C956.1770833333334,35.5,959.5104166666666,35.5,961.1770833333334,35.5L962.84375,35.5" id="edge-lstm_1" style="stroke: rgb(0, 0, 0); stroke-width: 1px; fill: none; marker-end: url(&quot;#arrowhead-vee&quot;);"/><path class="edge-path" d="M1062.84375,35.5L1064.5104166666667,35.5C1066.1770833333333,35.5,1069.5104166666667,35.5,1072.84375,35.5C1076.1770833333333,35.5,1079.5104166666667,35.5,1081.1770833333333,35.5L1082.84375,35.5" id="edge-dense_1" style="stroke: rgb(0, 0, 0); stroke-width: 1px; fill: none; marker-end: url(&quot;#arrowhead-vee&quot;);"/></g><g id="edge-labels" class="edge-labels"><g class="edge-label" id="edge-label-edge-input" transform="translate(63.6171875,52.5)" style="opacity: 1;"><g transform="translate(-14.0234375,-7)"><text style="font-family: -apple-system, BlinkMacSystemFont, &quot;Segoe WPC&quot;, &quot;Segoe UI&quot;, Ubuntu, &quot;Droid Sans&quot;, sans-serif, &quot;PingFang SC&quot;; font-size: 10px;"><tspan xml:space="preserve" dy="1em" x="1">?×?×1</tspan></text></g></g></g><g id="nodes" class="nodes"><g id="node-name-input_1" class="node graph-node" transform="translate(120.8515625,35.5)" style="opacity: 1;"><g transform="translate(-33.2109375,-11.5)"><g><g class="node-item node-item-type node-item-type-data" transform="translate(0,0)"><path d="M5,0h56.421875a5,5 0 0 1 5,5v13a5,5 0 0 1 -5,5h-56.421875a5,5 0 0 1 -5,-5v-13a5,5 0 0 1 5,-5z" style="stroke: rgb(0, 0, 0); fill: rgb(85, 85, 85); stroke-width: 0;"/><text x="6" y="16" style="font-family: -apple-system, BlinkMacSystemFont, &quot;Segoe WPC&quot;, &quot;Segoe UI&quot;, Ubuntu, &quot;Droid Sans&quot;, sans-serif, &quot;PingFang SC&quot;; font-size: 11px; text-rendering: geometricprecision; fill: rgb(255, 255, 255);">InputLayer</text><title>input_1</title></g><path class="node border" d="M5,0h56.421875a5,5 0 0 1 5,5v13a5,5 0 0 1 -5,5h-56.421875a5,5 0 0 1 -5,-5v-13a5,5 0 0 1 5,-5z" style="stroke: rgb(51, 51, 51); fill: none; stroke-width: 1px;"/></g></g></g><g id="node-name-conv1d" class="node graph-node" transform="translate(224.0625,35.5)" style="opacity: 1;"><g transform="translate(-50,-28.5)"><g><g class="node-item node-item-type node-item-type-layer" transform="translate(0,0)"><path d="M5,0h90a5,5 0 0 1 5,5v18a0,0 0 0 1 0,0h-100a0,0 0 0 1 0,0v-18a5,5 0 0 1 5,-5z" style="stroke: rgb(0, 0, 0); fill: rgb(51, 85, 136); stroke-width: 0;"/><text x="6" y="16" style="font-family: -apple-system, BlinkMacSystemFont, &quot;Segoe WPC&quot;, &quot;Segoe UI&quot;, Ubuntu, &quot;Droid Sans&quot;, sans-serif, &quot;PingFang SC&quot;; font-size: 11px; text-rendering: geometricprecision; fill: rgb(255, 255, 255);">Conv1D</text><title>conv1d</title></g><g class="node-attribute" transform="translate(0,23)"><path d="M0,0h100a0,0 0 0 1 0,0v29a5,5 0 0 1 -5,5h-90a5,5 0 0 1 -5,-5v-29a0,0 0 0 1 0,0z" style="stroke: rgb(0, 0, 0); fill: rgb(255, 255, 255); stroke-width: 0;"/><text id="initializer-conv1d/kernel:0" xml:space="preserve" x="6" y="14" style="font-family: -apple-system, BlinkMacSystemFont, &quot;Segoe WPC&quot;, &quot;Segoe UI&quot;, Ubuntu, &quot;Droid Sans&quot;, sans-serif, &quot;PingFang SC&quot;; font-size: 9px; font-weight: normal; text-rendering: geometricprecision;"><title>float32[1,1,81]</title><tspan style="font-weight: bold;">kernel</tspan><tspan>〈1×1×81〉</tspan></text><text id="initializer-conv1d/bias:0" xml:space="preserve" x="6" y="28" style="font-family: -apple-system, BlinkMacSystemFont, &quot;Segoe WPC&quot;, &quot;Segoe UI&quot;, Ubuntu, &quot;Droid Sans&quot;, sans-serif, &quot;PingFang SC&quot;; font-size: 9px; font-weight: normal; text-rendering: geometricprecision;"><title>float32[81]</title><tspan style="font-weight: bold;">bias</tspan><tspan>〈81〉</tspan></text><line class="node" x1="0" x2="100" y1="0" y2="0" style="stroke: rgb(51, 51, 51); fill: none; stroke-width: 1px;"/></g><path class="node border" d="M5,0h90a5,5 0 0 1 5,5v47a5,5 0 0 1 -5,5h-90a5,5 0 0 1 -5,-5v-47a5,5 0 0 1 5,-5z" style="stroke: rgb(51, 51, 51); fill: none; stroke-width: 1px;"/></g></g></g><g id="node-name-conv1d_1" class="node graph-node" transform="translate(344.0625,35.5)" style="opacity: 1;"><g transform="translate(-50,-28.5)"><g><g class="node-item node-item-type node-item-type-layer" transform="translate(0,0)"><path d="M5,0h90a5,5 0 0 1 5,5v18a0,0 0 0 1 0,0h-100a0,0 0 0 1 0,0v-18a5,5 0 0 1 5,-5z" style="stroke: rgb(0, 0, 0); fill: rgb(51, 85, 136); stroke-width: 0;"/><text x="6" y="16" style="font-family: -apple-system, BlinkMacSystemFont, &quot;Segoe WPC&quot;, &quot;Segoe UI&quot;, Ubuntu, &quot;Droid Sans&quot;, sans-serif, &quot;PingFang SC&quot;; font-size: 11px; text-rendering: geometricprecision; fill: rgb(255, 255, 255);">Conv1D</text><title>conv1d_1</title></g><g class="node-attribute" transform="translate(0,23)"><path d="M0,0h100a0,0 0 0 1 0,0v29a5,5 0 0 1 -5,5h-90a5,5 0 0 1 -5,-5v-29a0,0 0 0 1 0,0z" style="stroke: rgb(0, 0, 0); fill: rgb(255, 255, 255); stroke-width: 0;"/><text id="initializer-conv1d_1/kernel:0" xml:space="preserve" x="6" y="14" style="font-family: -apple-system, BlinkMacSystemFont, &quot;Segoe WPC&quot;, &quot;Segoe UI&quot;, Ubuntu, &quot;Droid Sans&quot;, sans-serif, &quot;PingFang SC&quot;; font-size: 9px; font-weight: normal; text-rendering: geometricprecision;"><title>float32[1,81,9]</title><tspan style="font-weight: bold;">kernel</tspan><tspan>〈1×81×9〉</tspan></text><text id="initializer-conv1d_1/bias:0" xml:space="preserve" x="6" y="28" style="font-family: -apple-system, BlinkMacSystemFont, &quot;Segoe WPC&quot;, &quot;Segoe UI&quot;, Ubuntu, &quot;Droid Sans&quot;, sans-serif, &quot;PingFang SC&quot;; font-size: 9px; font-weight: normal; text-rendering: geometricprecision;"><title>float32[9]</title><tspan style="font-weight: bold;">bias</tspan><tspan>〈9〉</tspan></text><line class="node" x1="0" x2="100" y1="0" y2="0" style="stroke: rgb(51, 51, 51); fill: none; stroke-width: 1px;"/></g><path class="node border" d="M5,0h90a5,5 0 0 1 5,5v47a5,5 0 0 1 -5,5h-90a5,5 0 0 1 -5,-5v-47a5,5 0 0 1 5,-5z" style="stroke: rgb(51, 51, 51); fill: none; stroke-width: 1px;"/></g></g></g><g id="node-name-conv1d_2" class="node graph-node" transform="translate(464.0625,35.5)" style="opacity: 1;"><g transform="translate(-50,-28.5)"><g><g class="node-item node-item-type node-item-type-layer" transform="translate(0,0)"><path d="M5,0h90a5,5 0 0 1 5,5v18a0,0 0 0 1 0,0h-100a0,0 0 0 1 0,0v-18a5,5 0 0 1 5,-5z" style="stroke: rgb(0, 0, 0); fill: rgb(51, 85, 136); stroke-width: 0;"/><text x="6" y="16" style="font-family: -apple-system, BlinkMacSystemFont, &quot;Segoe WPC&quot;, &quot;Segoe UI&quot;, Ubuntu, &quot;Droid Sans&quot;, sans-serif, &quot;PingFang SC&quot;; font-size: 11px; text-rendering: geometricprecision; fill: rgb(255, 255, 255);">Conv1D</text><title>conv1d_2</title></g><g class="node-attribute" transform="translate(0,23)"><path d="M0,0h100a0,0 0 0 1 0,0v29a5,5 0 0 1 -5,5h-90a5,5 0 0 1 -5,-5v-29a0,0 0 0 1 0,0z" style="stroke: rgb(0, 0, 0); fill: rgb(255, 255, 255); stroke-width: 0;"/><text id="initializer-conv1d_2/kernel:0" xml:space="preserve" x="6" y="14" style="font-family: -apple-system, BlinkMacSystemFont, &quot;Segoe WPC&quot;, &quot;Segoe UI&quot;, Ubuntu, &quot;Droid Sans&quot;, sans-serif, &quot;PingFang SC&quot;; font-size: 9px; font-weight: normal; text-rendering: geometricprecision;"><title>float32[1,9,1]</title><tspan style="font-weight: bold;">kernel</tspan><tspan>〈1×9×1〉</tspan></text><text id="initializer-conv1d_2/bias:0" xml:space="preserve" x="6" y="28" style="font-family: -apple-system, BlinkMacSystemFont, &quot;Segoe WPC&quot;, &quot;Segoe UI&quot;, Ubuntu, &quot;Droid Sans&quot;, sans-serif, &quot;PingFang SC&quot;; font-size: 9px; font-weight: normal; text-rendering: geometricprecision;"><title>float32[1]</title><tspan style="font-weight: bold;">bias</tspan><tspan>〈1〉</tspan></text><line class="node" x1="0" x2="100" y1="0" y2="0" style="stroke: rgb(51, 51, 51); fill: none; stroke-width: 1px;"/></g><path class="node border" d="M5,0h90a5,5 0 0 1 5,5v47a5,5 0 0 1 -5,5h-90a5,5 0 0 1 -5,-5v-47a5,5 0 0 1 5,-5z" style="stroke: rgb(51, 51, 51); fill: none; stroke-width: 1px;"/></g></g></g><g id="node-name-dense" class="node graph-node" transform="translate(584.0625,35.5)" style="opacity: 1;"><g transform="translate(-50,-28.5)"><g><g class="node-item node-item-type node-item-type-layer" transform="translate(0,0)"><path d="M5,0h90a5,5 0 0 1 5,5v18a0,0 0 0 1 0,0h-100a0,0 0 0 1 0,0v-18a5,5 0 0 1 5,-5z" style="stroke: rgb(0, 0, 0); fill: rgb(51, 85, 136); stroke-width: 0;"/><text x="6" y="16" style="font-family: -apple-system, BlinkMacSystemFont, &quot;Segoe WPC&quot;, &quot;Segoe UI&quot;, Ubuntu, &quot;Droid Sans&quot;, sans-serif, &quot;PingFang SC&quot;; font-size: 11px; text-rendering: geometricprecision; fill: rgb(255, 255, 255);">Dense</text><title>dense</title></g><g class="node-attribute" transform="translate(0,23)"><path d="M0,0h100a0,0 0 0 1 0,0v29a5,5 0 0 1 -5,5h-90a5,5 0 0 1 -5,-5v-29a0,0 0 0 1 0,0z" style="stroke: rgb(0, 0, 0); fill: rgb(255, 255, 255); stroke-width: 0;"/><text id="initializer-dense/kernel:0" xml:space="preserve" x="6" y="14" style="font-family: -apple-system, BlinkMacSystemFont, &quot;Segoe WPC&quot;, &quot;Segoe UI&quot;, Ubuntu, &quot;Droid Sans&quot;, sans-serif, &quot;PingFang SC&quot;; font-size: 9px; font-weight: normal; text-rendering: geometricprecision;"><title>float32[1,50]</title><tspan style="font-weight: bold;">kernel</tspan><tspan>〈1×50〉</tspan></text><text id="initializer-dense/bias:0" xml:space="preserve" x="6" y="28" style="font-family: -apple-system, BlinkMacSystemFont, &quot;Segoe WPC&quot;, &quot;Segoe UI&quot;, Ubuntu, &quot;Droid Sans&quot;, sans-serif, &quot;PingFang SC&quot;; font-size: 9px; font-weight: normal; text-rendering: geometricprecision;"><title>float32[50]</title><tspan style="font-weight: bold;">bias</tspan><tspan>〈50〉</tspan></text><line class="node" x1="0" x2="100" y1="0" y2="0" style="stroke: rgb(51, 51, 51); fill: none; stroke-width: 1px;"/></g><path class="node border" d="M5,0h90a5,5 0 0 1 5,5v47a5,5 0 0 1 -5,5h-90a5,5 0 0 1 -5,-5v-47a5,5 0 0 1 5,-5z" style="stroke: rgb(51, 51, 51); fill: none; stroke-width: 1px;"/></g></g></g><g id="node-name-lstm" class="node graph-node" transform="translate(721.2578125,35.5)" style="opacity: 1;"><g transform="translate(-67.1953125,-35.5)"><g><g class="node-item node-item-type node-item-type-layer" transform="translate(0,0)"><path d="M5,0h124.390625a5,5 0 0 1 5,5v18a0,0 0 0 1 0,0h-134.390625a0,0 0 0 1 0,0v-18a5,5 0 0 1 5,-5z" style="stroke: rgb(0, 0, 0); fill: rgb(51, 85, 136); stroke-width: 0;"/><text x="6" y="16" style="font-family: -apple-system, BlinkMacSystemFont, &quot;Segoe WPC&quot;, &quot;Segoe UI&quot;, Ubuntu, &quot;Droid Sans&quot;, sans-serif, &quot;PingFang SC&quot;; font-size: 11px; text-rendering: geometricprecision; fill: rgb(255, 255, 255);">LSTM</text><title>lstm</title></g><g class="node-attribute" transform="translate(0,23)"><path d="M0,0h134.390625a0,0 0 0 1 0,0v43a5,5 0 0 1 -5,5h-124.390625a5,5 0 0 1 -5,-5v-43a0,0 0 0 1 0,0z" style="stroke: rgb(0, 0, 0); fill: rgb(255, 255, 255); stroke-width: 0;"/><text id="initializer-lstm/lstm_cell/kernel:0" xml:space="preserve" x="6" y="14" style="font-family: -apple-system, BlinkMacSystemFont, &quot;Segoe WPC&quot;, &quot;Segoe UI&quot;, Ubuntu, &quot;Droid Sans&quot;, sans-serif, &quot;PingFang SC&quot;; font-size: 9px; font-weight: normal; text-rendering: geometricprecision;"><title>float32[50,512]</title><tspan style="font-weight: bold;">kernel</tspan><tspan>〈50×512〉</tspan></text><text id="initializer-lstm/lstm_cell/recurrent_kernel:0" xml:space="preserve" x="6" y="28" style="font-family: -apple-system, BlinkMacSystemFont, &quot;Segoe WPC&quot;, &quot;Segoe UI&quot;, Ubuntu, &quot;Droid Sans&quot;, sans-serif, &quot;PingFang SC&quot;; font-size: 9px; font-weight: normal; text-rendering: geometricprecision;"><title>float32[128,512]</title><tspan style="font-weight: bold;">recurrent_kernel</tspan><tspan>〈128×512〉</tspan></text><text id="initializer-lstm/lstm_cell/bias:0" xml:space="preserve" x="6" y="42" style="font-family: -apple-system, BlinkMacSystemFont, &quot;Segoe WPC&quot;, &quot;Segoe UI&quot;, Ubuntu, &quot;Droid Sans&quot;, sans-serif, &quot;PingFang SC&quot;; font-size: 9px; font-weight: normal; text-rendering: geometricprecision;"><title>float32[512]</title><tspan style="font-weight: bold;">bias</tspan><tspan>〈512〉</tspan></text><line class="node" x1="0" x2="134.390625" y1="0" y2="0" style="stroke: rgb(51, 51, 51); fill: none; stroke-width: 1px;"/></g><path class="node border" d="M5,0h124.390625a5,5 0 0 1 5,5v61a5,5 0 0 1 -5,5h-124.390625a5,5 0 0 1 -5,-5v-61a5,5 0 0 1 5,-5z" style="stroke: rgb(51, 51, 51); fill: none; stroke-width: 1px;"/></g></g></g><g id="node-name-lstm_1" class="node graph-node" transform="translate(875.6484375,35.5)" style="opacity: 1;"><g transform="translate(-67.1953125,-35.5)"><g><g class="node-item node-item-type node-item-type-layer" transform="translate(0,0)"><path d="M5,0h124.390625a5,5 0 0 1 5,5v18a0,0 0 0 1 0,0h-134.390625a0,0 0 0 1 0,0v-18a5,5 0 0 1 5,-5z" style="stroke: rgb(0, 0, 0); fill: rgb(51, 85, 136); stroke-width: 0;"/><text x="6" y="16" style="font-family: -apple-system, BlinkMacSystemFont, &quot;Segoe WPC&quot;, &quot;Segoe UI&quot;, Ubuntu, &quot;Droid Sans&quot;, sans-serif, &quot;PingFang SC&quot;; font-size: 11px; text-rendering: geometricprecision; fill: rgb(255, 255, 255);">LSTM</text><title>lstm_1</title></g><g class="node-attribute" transform="translate(0,23)"><path d="M0,0h134.390625a0,0 0 0 1 0,0v43a5,5 0 0 1 -5,5h-124.390625a5,5 0 0 1 -5,-5v-43a0,0 0 0 1 0,0z" style="stroke: rgb(0, 0, 0); fill: rgb(255, 255, 255); stroke-width: 0;"/><text id="initializer-lstm_1/lstm_cell_1/kernel:0" xml:space="preserve" x="6" y="14" style="font-family: -apple-system, BlinkMacSystemFont, &quot;Segoe WPC&quot;, &quot;Segoe UI&quot;, Ubuntu, &quot;Droid Sans&quot;, sans-serif, &quot;PingFang SC&quot;; font-size: 9px; font-weight: normal; text-rendering: geometricprecision;"><title>float32[128,512]</title><tspan style="font-weight: bold;">kernel</tspan><tspan>〈128×512〉</tspan></text><text id="initializer-lstm_1/lstm_cell_1/recurrent_kernel:0" xml:space="preserve" x="6" y="28" style="font-family: -apple-system, BlinkMacSystemFont, &quot;Segoe WPC&quot;, &quot;Segoe UI&quot;, Ubuntu, &quot;Droid Sans&quot;, sans-serif, &quot;PingFang SC&quot;; font-size: 9px; font-weight: normal; text-rendering: geometricprecision;"><title>float32[128,512]</title><tspan style="font-weight: bold;">recurrent_kernel</tspan><tspan>〈128×512〉</tspan></text><text id="initializer-lstm_1/lstm_cell_1/bias:0" xml:space="preserve" x="6" y="42" style="font-family: -apple-system, BlinkMacSystemFont, &quot;Segoe WPC&quot;, &quot;Segoe UI&quot;, Ubuntu, &quot;Droid Sans&quot;, sans-serif, &quot;PingFang SC&quot;; font-size: 9px; font-weight: normal; text-rendering: geometricprecision;"><title>float32[512]</title><tspan style="font-weight: bold;">bias</tspan><tspan>〈512〉</tspan></text><line class="node" x1="0" x2="134.390625" y1="0" y2="0" style="stroke: rgb(51, 51, 51); fill: none; stroke-width: 1px;"/></g><path class="node border" d="M5,0h124.390625a5,5 0 0 1 5,5v61a5,5 0 0 1 -5,5h-124.390625a5,5 0 0 1 -5,-5v-61a5,5 0 0 1 5,-5z" style="stroke: rgb(51, 51, 51); fill: none; stroke-width: 1px;"/></g></g></g><g id="node-name-dense_1" class="node graph-node" transform="translate(1012.84375,35.5)" style="opacity: 1;"><g transform="translate(-50,-28.5)"><g><g class="node-item node-item-type node-item-type-layer" transform="translate(0,0)"><path d="M5,0h90a5,5 0 0 1 5,5v18a0,0 0 0 1 0,0h-100a0,0 0 0 1 0,0v-18a5,5 0 0 1 5,-5z" style="stroke: rgb(0, 0, 0); fill: rgb(51, 85, 136); stroke-width: 0;"/><text x="6" y="16" style="font-family: -apple-system, BlinkMacSystemFont, &quot;Segoe WPC&quot;, &quot;Segoe UI&quot;, Ubuntu, &quot;Droid Sans&quot;, sans-serif, &quot;PingFang SC&quot;; font-size: 11px; text-rendering: geometricprecision; fill: rgb(255, 255, 255);">Dense</text><title>dense_1</title></g><g class="node-attribute" transform="translate(0,23)"><path d="M0,0h100a0,0 0 0 1 0,0v29a5,5 0 0 1 -5,5h-90a5,5 0 0 1 -5,-5v-29a0,0 0 0 1 0,0z" style="stroke: rgb(0, 0, 0); fill: rgb(255, 255, 255); stroke-width: 0;"/><text id="initializer-dense_1/kernel:0" xml:space="preserve" x="6" y="14" style="font-family: -apple-system, BlinkMacSystemFont, &quot;Segoe WPC&quot;, &quot;Segoe UI&quot;, Ubuntu, &quot;Droid Sans&quot;, sans-serif, &quot;PingFang SC&quot;; font-size: 9px; font-weight: normal; text-rendering: geometricprecision;"><title>float32[128,1]</title><tspan style="font-weight: bold;">kernel</tspan><tspan>〈128×1〉</tspan></text><text id="initializer-dense_1/bias:0" xml:space="preserve" x="6" y="28" style="font-family: -apple-system, BlinkMacSystemFont, &quot;Segoe WPC&quot;, &quot;Segoe UI&quot;, Ubuntu, &quot;Droid Sans&quot;, sans-serif, &quot;PingFang SC&quot;; font-size: 9px; font-weight: normal; text-rendering: geometricprecision;"><title>float32[1]</title><tspan style="font-weight: bold;">bias</tspan><tspan>〈1〉</tspan></text><line class="node" x1="0" x2="100" y1="0" y2="0" style="stroke: rgb(51, 51, 51); fill: none; stroke-width: 1px;"/></g><path class="node border" d="M5,0h90a5,5 0 0 1 5,5v47a5,5 0 0 1 -5,5h-90a5,5 0 0 1 -5,-5v-47a5,5 0 0 1 5,-5z" style="stroke: rgb(51, 51, 51); fill: none; stroke-width: 1px;"/></g></g></g><g id="input-name-input" class="node graph-input" transform="translate(19.796875,35.5)" style="opacity: 1;"><g transform="translate(-19.796875,-11.5)"><g><g class="node-item graph-item-input" transform="translate(0,0)"><path d="M5,0h29.59375a5,5 0 0 1 5,5v13a5,5 0 0 1 -5,5h-29.59375a5,5 0 0 1 -5,-5v-13a5,5 0 0 1 5,-5z" style="stroke: rgb(0, 0, 0); fill: rgb(238, 238, 238); stroke-width: 0;"/><text x="6" y="16" style="font-family: -apple-system, BlinkMacSystemFont, &quot;Segoe WPC&quot;, &quot;Segoe UI&quot;, Ubuntu, &quot;Droid Sans&quot;, sans-serif, &quot;PingFang SC&quot;; font-size: 11px; text-rendering: geometricprecision;">input</text><title>float32[?,?,1]</title></g><path class="node border" d="M5,0h29.59375a5,5 0 0 1 5,5v13a5,5 0 0 1 -5,5h-29.59375a5,5 0 0 1 -5,-5v-13a5,5 0 0 1 5,-5z" style="stroke: rgb(51, 51, 51); fill: none; stroke-width: 1px;"/></g></g></g><g class="node" transform="translate(1109.53125,35.5)" style="opacity: 1;"><g transform="translate(-26.6875,-11.5)"><g><g class="node-item graph-item-output" transform="translate(0,0)"><path d="M5,0h43.375a5,5 0 0 1 5,5v13a5,5 0 0 1 -5,5h-43.375a5,5 0 0 1 -5,-5v-13a5,5 0 0 1 5,-5z" style="stroke: rgb(0, 0, 0); fill: rgb(238, 238, 238); stroke-width: 0;"/><text x="6" y="16" style="font-family: -apple-system, BlinkMacSystemFont, &quot;Segoe WPC&quot;, &quot;Segoe UI&quot;, Ubuntu, &quot;Droid Sans&quot;, sans-serif, &quot;PingFang SC&quot;; font-size: 11px; text-rendering: geometricprecision;">dense_1</text></g><path class="node border" d="M5,0h43.375a5,5 0 0 1 5,5v13a5,5 0 0 1 -5,5h-43.375a5,5 0 0 1 -5,-5v-13a5,5 0 0 1 5,-5z" style="stroke: rgb(51, 51, 51); fill: none; stroke-width: 1px;"/></g></g></g></g></g></svg>